<svg width="20" height="24" viewBox="0 0 20 24" fill="none" xmlns="http://www.w3.org/2000/svg">
<path d="M6.69618 22.095C6.68045 22.0923 6.66494 22.0892 6.64922 22.0858C5.93246 21.9361 5.45685 21.2672 5.57954 20.5713C5.58845 20.5205 5.60074 20.4703 5.61595 20.4211L5.67143 20.2752L7.95131 14.4032L7.93661 14.3966L7.93644 14.3976L7.90589 14.3852L7.94532 14.3922L4.06594 13.7012C3.56352 13.6089 3.15281 13.2551 3.00188 12.7847C2.85102 12.3153 2.9847 11.8075 3.34882 11.4695L3.34978 11.4697L12.7258 2.3975C13.0452 2.10144 13.4231 1.97317 13.8427 2.04706C14.0251 2.0791 14.1998 2.14662 14.3551 2.24549C14.8895 2.58458 15.1129 3.23156 14.8937 3.80213L12.4528 10.5085L12.4604 10.5108L12.4677 10.5141L12.4687 10.5142L12.5042 10.5265L12.459 10.5185L16.3348 11.2297C16.8371 11.3219 17.2479 11.6759 17.3989 12.1461C17.5501 12.6165 17.4153 13.1241 17.0508 13.4621L17.0516 13.4633L7.82601 21.733C7.79927 21.7589 7.77071 21.784 7.74151 21.8073C7.64435 21.885 7.53631 21.9491 7.42038 21.9976C7.21324 22.0852 7.04332 22.1334 6.80457 22.1102C6.76875 22.1065 6.73222 22.1014 6.69618 22.095ZM6.92992 20.8144L16.1068 12.5004L16.1019 12.4946L16.0927 12.485L16.1032 12.4869L10.6216 11.5025L13.6233 3.33616L13.6099 3.32785L4.29736 12.4112L4.30245 12.4161L4.30833 12.4221L4.31167 12.4257L4.30109 12.4238L9.78452 13.4095L6.91747 20.8063L6.92992 20.8144Z" fill="#2563EB" stroke="#2563EB" stroke-width="0.015625"/>
<path d="M3.97277 12.227C3.9835 12.185 4.11729 12.0364 4.23984 11.9404C4.37444 11.835 4.50721 11.7067 4.66888 11.5951C4.81808 11.4921 5.04156 11.3036 5.22064 11.1594C5.51794 10.9198 5.8114 10.6226 5.96756 10.5057C6.12272 10.3896 6.2796 10.1979 6.53009 9.95354C6.81908 9.67162 7.19395 9.32626 7.42203 9.11392C7.58448 8.96269 7.71768 8.81615 7.85164 8.66203C7.97509 8.52 8.09697 8.40173 8.27475 8.195C8.64798 7.76101 8.78798 7.65767 8.90522 7.5198C9.13752 7.24663 9.37869 6.96784 9.51851 6.80765C9.63768 6.67111 9.76937 6.52091 9.89197 6.36679C10.0094 6.2191 10.148 6.0536 10.2822 5.89931C10.4761 5.67625 10.6056 5.56457 10.8614 5.30459C11.1335 5.02812 11.5306 4.66105 11.6368 4.54948C11.8114 4.36607 12.0992 4.15092 12.2331 4.04458C12.345 3.95573 12.467 3.86393 12.6232 3.74706C12.7598 3.64481 12.9017 3.50299 13.0634 3.36445C13.2073 3.24115 13.3365 3.1516 13.4483 3.10357C13.5587 3.05615 13.3483 3.36312 13.2759 3.49076C13.2078 3.61072 13.1809 3.74554 13.1085 3.87843C13.0239 4.03361 12.958 4.1917 12.8521 4.40905C12.6911 4.73943 12.612 4.88199 12.5395 5.02572C12.4601 5.18334 12.4111 5.36 12.3386 5.52492C12.2813 5.65539 12.2437 5.7851 12.1656 6.02377C12.103 6.21548 11.9986 6.44282 11.9311 6.64023C11.8824 6.78261 11.8418 6.93227 11.7971 7.05989C11.7534 7.18471 11.7413 7.31463 11.6966 7.44225C11.6518 7.56987 11.6073 7.71804 11.5626 7.88294C11.5259 8.01818 11.4733 8.14312 11.4563 8.27598C11.4362 8.43344 11.3727 8.57837 11.328 8.71682C11.2865 8.84541 11.2387 8.97159 11.194 9.09921C11.1469 9.23373 11.1382 9.38581 11.0935 9.51869C11.0389 9.68073 11.0042 9.83191 10.9594 9.98598C10.9204 10.1206 10.8702 10.2462 10.8532 10.3738C10.8357 10.5056 10.7697 10.6285 10.7305 10.7561C10.6925 10.8796 10.6691 11.0109 10.6022 11.165C10.5481 11.2895 10.5351 11.4251 10.5125 11.5475C10.5072 11.5757 10.5564 11.5952 10.59 11.6113C10.6545 11.6422 11.1539 11.6483 11.8723 11.653C12.2288 11.6554 12.3831 11.7003 12.556 11.7374C12.693 11.7669 12.8509 11.7955 13.0238 11.8115C13.1654 11.8246 13.2967 11.8589 13.436 11.8749C13.6012 11.8938 13.7973 11.9331 13.9707 11.9594C14.1421 11.9854 14.3212 12.0175 14.5052 12.0546C14.7077 12.0955 14.8893 12.0916 15.0455 12.1179C15.233 12.1495 15.4126 12.1549 15.5747 12.1812C15.735 12.2073 15.8698 12.2183 16.0146 12.2446C16.0588 12.2527 16.1144 12.25 16.1428 12.271C16.1712 12.292 16.1712 12.334 16.1546 12.3715C16.0865 12.5253 15.9376 12.6528 15.8037 12.7701C15.6522 12.9028 15.5363 13.0672 15.3801 13.2058C15.2461 13.3246 15.135 13.4715 15.0177 13.5988C14.8429 13.7888 14.7336 13.9178 14.6329 14.0346C14.5322 14.1515 14.4212 14.2576 14.3041 14.3588C14.1694 14.4754 14.0312 14.6612 13.9028 14.7997C13.785 14.9268 13.6519 15.0546 13.5294 15.1875C13.3962 15.332 13.262 15.4582 13.0447 15.6761C12.8439 15.8776 12.5931 16.0856 12.2261 16.4195C12.0094 16.6165 11.8574 16.6806 11.718 16.7607C11.5277 16.87 11.3672 16.9996 11.2442 17.1273C11.1097 17.2668 10.9325 17.3503 10.7429 17.4938C10.5103 17.6699 10.3861 17.7859 10.2134 17.9085C10.004 18.0572 9.81833 18.2005 9.65029 18.3338C9.51898 18.4379 9.38294 18.541 9.16574 18.732C8.95395 18.9182 8.68067 19.1468 8.48019 19.3219C8.27294 19.5028 8.11219 19.6041 7.97829 19.6732C7.84439 19.7422 7.68891 19.8484 7.51589 19.9389C7.35606 20.0224 7.24287 20.1355 7.11445 20.2523C7.05407 20.3073 7.01945 20.38 6.986 20.412C6.96164 20.4354 7.04089 20.3064 7.11383 20.1896C7.19459 20.0602 7.28647 19.9347 7.40353 19.8071C7.50756 19.6936 7.55412 19.5312 7.6657 19.3663C7.74723 19.2458 7.78838 19.1061 7.84447 18.952C7.89597 18.8105 7.9558 18.6599 8.03962 18.5323C8.11552 18.4167 8.15661 18.2775 8.21819 18.1499C8.28184 18.018 8.37948 17.874 8.47467 17.7303C8.57472 17.5792 8.63648 17.417 8.68671 17.2894C8.7402 17.1534 8.82594 17.0135 8.88755 16.8486C8.94034 16.7074 9.00471 16.5884 9.07716 16.4608C9.14726 16.3373 9.20551 16.206 9.25022 16.0784C9.29616 15.9473 9.3729 15.8236 9.42312 15.6907C9.48487 15.5274 9.57372 15.4093 9.64619 15.25C9.71716 15.0939 9.77457 14.9631 9.8193 14.8091C9.85938 14.671 9.94199 14.5278 9.98671 14.3841C10.0344 14.2307 10.0649 14.1343 10.0651 14.076C10.0652 14.0473 10.0212 14.0283 9.99315 14.0332C9.86063 14.0566 9.86465 14.2609 9.7922 14.3886C9.72412 14.5085 9.69727 14.6434 9.65807 14.7762C9.61106 14.9356 9.59668 15.0894 9.55197 15.2171C9.50726 15.3447 9.48476 15.4928 9.45139 15.6577C9.42363 15.7949 9.34006 15.9389 9.28398 16.0827C9.22545 16.2326 9.19471 16.364 9.15 16.4916C9.10627 16.6165 9.09416 16.7464 9.02172 16.874C8.9873 16.9347 8.97133 17.0017 8.95459 17.0337C8.90947 17.12 8.89359 16.8115 8.88813 16.2873C8.88592 16.0752 8.97176 15.9513 9.02198 15.8237C9.07547 15.6878 9.13915 15.5479 9.21161 15.4041C9.28659 15.2554 9.33999 15.1227 9.38472 14.9687C9.4248 14.8306 9.50741 14.6875 9.57435 14.549C9.63212 14.4295 9.69687 14.2732 9.75295 14.1347C9.80379 14.0092 9.8422 13.8799 9.88691 13.7523C9.89813 13.7203 9.90918 13.6887 9.90937 13.6567C9.90956 13.6247 9.89856 13.5932 9.87635 13.5717C9.76789 13.4668 9.58719 13.4335 9.44234 13.4019C9.25247 13.3605 9.07526 13.3383 8.86323 13.3067C8.68401 13.2801 8.48445 13.254 8.23966 13.2381C8.03753 13.2249 7.77197 13.1908 7.52668 13.1749C7.28072 13.1589 7.01404 13.1276 6.79148 13.1117C6.58928 13.0972 6.41252 13.0644 6.18444 13.0484C5.97644 13.0339 5.82236 13.0011 5.67716 12.9851C5.51985 12.9678 5.34316 12.9377 5.20382 12.9005C5.04729 12.8588 4.90876 12.8425 4.74719 12.8265C4.5998 12.8119 4.47441 12.6943 4.35717 12.5988C4.32867 12.5756 4.34018 12.5249 4.35124 12.4875C4.39608 12.3356 4.55162 12.2272 4.6742 12.0943C4.80738 11.9499 4.91952 11.8447 5.01987 11.717C5.13831 11.5663 5.27606 11.4621 5.51552 11.2286C5.66332 11.0844 5.77778 10.8991 5.99501 10.6707C6.16702 10.4899 6.25743 10.3464 6.40777 10.187C6.55934 10.0263 6.70295 9.84717 6.87038 9.63472C7.09812 9.34573 7.32711 9.11463 7.4783 8.9436C7.60838 8.79645 7.80677 8.56187 8.01313 8.33824C8.19407 8.14217 8.34193 7.96638 8.4595 7.83313C8.51035 7.77549 8.60983 7.68998 8.80935 7.45217C9.16952 7.02291 9.46844 6.71228 9.57398 6.57983C9.82257 6.26786 10.0478 6.0747 10.1986 5.92056C10.3388 5.77729 10.4605 5.66025 10.6221 5.53255C10.7831 5.40537 10.9286 5.26679 11.0348 5.15521C11.1421 5.04253 11.2965 5.00083 11.4303 4.9582C11.497 4.93697 11.5642 4.91557 11.6254 4.91537C11.6555 4.91527 11.6755 4.95722 11.6813 4.99449C11.7071 5.15943 11.609 5.32873 11.5588 5.49889C11.5093 5.66638 11.4636 5.8067 11.4247 5.98736C11.3663 6.25885 11.2519 6.54977 11.1179 6.89505C11.0279 7.12723 10.9391 7.45284 10.839 7.68627C10.6091 8.22238 10.6376 8.36674 10.5706 8.54726C10.5138 8.70062 10.4922 8.87656 10.4533 9.00944C10.4002 9.19095 10.314 9.43866 10.2579 9.64131C10.2109 9.81092 10.1686 9.95995 10.1461 10.0928C10.1172 10.2637 10.068 10.406 10.0233 10.5337C9.97955 10.6585 9.96743 10.8094 9.92269 10.9743C9.886 11.1096 9.83344 11.2345 9.78871 11.3886C9.76851 11.4581 9.75502 11.5216 9.74949 11.5484C9.66063 11.9781 9.74452 10.3438 9.7615 10.2057C9.78404 10.0224 9.82305 9.89777 9.85645 9.69083C9.8894 9.48676 9.99062 9.26049 10.1518 8.73648C10.3118 8.21588 10.4589 7.83867 10.5486 7.58231C10.6136 7.39666 10.6826 7.15739 10.7274 6.97689C10.7617 6.83857 10.8053 6.69027 10.8336 6.55183C10.8603 6.42138 10.8951 6.31811 10.8841 6.27017C10.8458 6.10298 10.6502 6.64642 10.5553 6.85866C10.4604 7.07108 10.3269 7.294 10.1708 7.6017C9.93172 8.07286 9.81352 8.30362 9.61301 8.74866C9.52384 8.94657 9.44527 9.15258 9.3614 9.36051C9.28514 9.54959 9.28845 9.72677 9.25507 9.89165C9.22731 10.0288 9.18788 10.1518 9.15453 10.2794C9.11788 10.4197 9.08731 10.566 9.05397 10.6937C9.01985 10.8242 8.98676 10.9694 8.9534 11.1079C8.92181 11.239 8.87519 11.3416 8.85291 11.4211C8.77172 11.7108 8.84225 10.2279 8.85927 10.0313C8.87654 9.83194 8.9209 9.62254 8.9543 9.42596C8.98459 9.24762 9.02154 9.10192 9.06044 8.91616C9.10122 8.72147 9.17768 8.56022 9.20016 8.42736C9.23133 8.24326 9.33376 8.08225 9.39537 7.92817C9.42462 7.85502 9.46799 7.79511 9.47368 7.78412C9.5912 7.55701 9.31224 8.2613 9.22283 8.51081C9.14347 8.73227 9.04435 8.98339 8.96053 9.1327C8.88625 9.26501 8.81003 9.50348 8.72066 9.69023C8.62033 9.89988 8.59773 10.0777 8.51972 10.2584C8.42966 10.467 8.39681 10.6194 8.35209 10.7579C8.30747 10.896 8.24074 11.0655 8.2124 11.204C8.18366 11.3444 8.12881 11.4906 8.0841 11.6182C8.03107 11.7696 8.07313 10.8446 8.1124 10.616C8.13871 10.4628 8.15176 10.2711 8.19069 10.0479C8.23621 9.78689 8.30795 9.64402 8.3582 9.48469C8.41075 9.31806 8.47538 9.19789 8.52009 9.06501C8.53252 9.02808 8.54238 8.98567 8.53703 8.98504C8.29843 8.95678 8.30871 9.51531 8.24713 9.64295C8.16908 9.8047 8.03026 10.0565 7.94593 10.2166C7.8732 10.3547 7.80667 10.5243 7.69509 10.6892C7.59778 10.8331 7.48346 11.0342 7.41048 11.2044C7.33963 11.3696 7.2378 11.5123 7.14847 11.6508C7.10647 11.7159 7.05914 11.7784 7.02019 11.8105C6.93896 11.8773 7.00314 11.5883 7.05891 11.4132C7.14467 11.1439 7.23755 10.9408 7.31004 10.765C7.39882 10.5497 7.54961 10.1447 7.59501 9.99449C7.63634 9.85767 7.42789 10.2487 7.32768 10.4028C7.24608 10.5283 7.17157 10.684 7.05999 10.849C6.96803 10.9849 6.87045 11.1411 6.74787 11.2635C6.63069 11.3806 6.53597 11.5236 6.42443 11.6249C6.31568 11.7236 6.23493 11.8743 6.1456 12.0019C6.05952 12.125 6.02276 12.2567 5.90606 12.3475C5.77469 12.4496 5.644 12.4064 5.62145 12.3958C5.34317 12.2643 6.40028 12.4374 6.68952 12.4585C7.04985 12.4849 7.26914 12.5323 7.44208 12.5483C7.70316 12.5724 8.08255 12.5955 8.2996 12.6114C8.5287 12.6282 8.83981 12.6586 8.99051 12.701C9.15823 12.7483 9.26341 12.8915 9.40807 12.9661C9.54741 13.038 9.68636 13.104 9.84791 13.1517C9.99807 13.196 10.1207 13.3261 10.1879 13.4697C10.2552 13.6134 10.2433 13.7509 10.2488 14.2752C10.2511 14.4961 10.1985 14.685 10.126 14.8925C10.0623 15.0748 10.0531 15.2484 10.0252 15.3865C9.98517 15.5854 9.9638 15.7792 9.89686 15.9177C9.82452 16.0673 9.76292 16.268 9.71819 16.4221C9.6698 16.5888 9.57336 16.8199 9.51174 16.9957C9.46187 17.1379 9.37252 17.2559 9.31093 17.3835C9.24612 17.5179 9.1049 17.6065 8.98785 17.7078C8.87433 17.806 8.81522 17.9572 8.71989 18.0745C8.62053 18.1967 9.00309 17.8946 9.26459 17.6826C9.74303 17.2946 9.81709 17.1504 9.95656 17.0071C10.1019 16.8578 10.2739 16.7678 10.4525 16.6192C10.6252 16.4755 10.7976 16.3221 10.9653 16.1886C11.2162 15.989 11.4443 15.7794 11.6451 15.6201C11.7836 15.5103 11.9793 15.3865 12.1801 15.2532C12.3178 15.1618 12.4588 15.0886 12.5982 15.0138C12.7695 14.9219 12.9155 14.8226 13.1163 14.658C13.2529 14.5462 13.395 14.4718 13.5289 14.3866C13.6756 14.2934 13.8518 14.1427 13.9971 14.0359C14.1367 13.9332 14.2979 13.7919 14.4541 13.627C14.5652 13.5095 14.6324 13.3667 14.7053 13.2391C14.7782 13.1116 14.8114 13.0158 14.8117 12.9575C14.8121 12.8309 14.5452 12.8462 14.339 12.8195C14.1545 12.7955 13.9771 12.8141 13.7988 12.8409C13.473 12.8897 13.2644 13.0268 13.0964 13.1068C12.9514 13.1757 12.7957 13.282 12.6673 13.3724C12.5334 13.4667 12.4498 13.6429 12.3328 13.7867C12.1967 13.9538 12.1153 14.1637 11.9927 14.2967C11.854 14.4471 11.5266 14.7675 11.2793 14.9663C11.0855 15.1222 10.8672 15.2478 10.7219 15.3226C10.5686 15.4016 10.4325 15.5138 10.2873 15.6254C10.1594 15.7236 10.053 15.7903 10.0194 15.8328C9.93286 15.9424 10.4191 15.6107 10.6704 15.4561C10.8237 15.3619 10.9882 15.291 11.1276 15.2167C11.302 15.1237 11.5224 14.9937 11.6904 14.9241C11.8578 14.8548 12.0688 14.6856 12.2309 14.5947C12.409 14.4948 12.5482 14.3877 12.7101 14.2547C12.939 14.0666 13.1501 13.9304 13.3065 13.803C13.5165 13.6319 13.6297 13.484 13.6916 13.3672C13.707 13.3382 13.6973 13.3037 13.6808 13.2822C13.6012 13.1787 13.3866 13.1548 12.642 13.1393C12.3377 13.1329 12.1167 13.071 11.9602 13.0178C11.81 12.9667 11.6597 12.8694 11.4372 12.79C11.237 12.7187 11.1031 12.5729 10.9137 12.5035C10.6976 12.4245 10.5571 12.4242 10.2846 12.4083C10.0549 12.3949 9.74438 12.361 8.80562 12.3404C8.48006 12.3332 8.32943 12.2665 8.12877 12.2294C7.96379 12.1989 7.71722 12.1924 7.48831 12.1661C7.4379 12.1604 7.39374 12.1608 7.39308 12.1503C7.38476 12.0179 7.80287 12.0649 8.01628 12.0383C8.15006 12.0216 8.39379 12.0008 8.76662 11.9741C9.30076 11.9358 9.69856 11.9574 9.90327 11.9414C10.6653 11.8815 10.8455 11.9671 11.046 11.9934C11.3338 12.0312 12.0653 12.0299 12.5223 12.056C12.5948 12.0602 12.6729 12.0719 12.7563 12.093C12.7957 12.103 12.8286 12.1141 12.8456 12.1826C12.8626 12.2511 12.8625 12.3772 12.8404 12.458C12.7832 12.6668 12.5401 12.7508 12.3948 12.8524C12.3364 12.8932 12.1175 12.9742 11.85 13.0808C11.7634 13.1153 11.7591 13.0611 11.7757 13.0341C11.8849 12.8565 12.282 12.837 12.4881 12.7627C12.7872 12.6547 12.9506 12.6136 13.1236 12.5445C13.1951 12.5159 13.2631 12.4754 13.2912 12.4276C13.3645 12.3029 12.8971 12.5594 12.5849 12.6928C12.2692 12.8277 11.8714 13.0489 11.6929 13.1502C11.4541 13.2856 11.1031 13.5056 10.8959 13.655C10.7538 13.7576 10.7338 13.9099 10.7168 14.1168C10.7101 14.1979 10.6888 14.2817 10.6942 14.3771C10.7033 14.5367 10.8883 14.6743 11.0499 14.786C11.0845 14.81 11.1222 14.8022 11.1448 14.7864C11.2574 14.7077 11.2236 14.2007 11.1795 13.8579C11.1439 13.5807 11.0464 13.4018 11.0183 13.1889C11.0083 13.1135 10.9905 12.9559 11.0127 12.7489C11.0217 12.6659 11.079 12.6366 11.1293 12.6203C11.2305 12.5876 11.3357 12.6249 11.419 12.6725C11.5746 12.7613 11.7024 12.9426 11.8588 13.1126C11.9321 13.1922 11.9594 13.3668 11.9372 13.5895C11.9026 13.9362 11.5251 14.0794 11.3912 14.1858C11.3601 14.2105 11.3245 14.2178 11.3075 14.1759C11.2064 13.9272 11.2574 13.6151 11.2298 13.3851C11.2166 13.2749 11.2023 13.1462 11.1469 13.0402C11.0464 12.8478 10.4926 12.8594 10.2114 12.9123C10.1568 12.9226 10.1115 12.9967 10.0831 13.0448C10.0547 13.0929 10.0546 13.135 10.0656 13.1776C10.1085 13.3441 10.3098 13.3903 10.5376 13.4801C11.0889 13.6974 11.257 13.6658 11.3182 13.6974C11.3496 13.7137 11.3683 13.7501 11.3796 13.7874C11.4398 13.9852 11.0685 14.1963 10.9454 14.3345C10.7662 14.5357 10.6109 14.7064 10.5216 14.8605C10.4395 15.0021 10.3546 15.1105 10.254 15.2165C10.2316 15.2486 10.2095 15.2801 10.1926 15.3122C10.1757 15.3442 10.1646 15.3757 10.1532 15.4082" stroke="#2563EB" stroke-linecap="round"/>
<path d="M10.3412 6.06015C10.1596 6.1147 9.9398 6.33085 9.75615 6.60106C9.55257 6.90061 9.20647 7.23099 9.02159 7.52084C8.87239 7.75476 8.72703 8.04219 8.57966 8.27691C8.43904 8.50089 8.1763 8.74526 8.0288 8.99773C7.85194 9.30048 7.73399 9.55511 7.5683 9.83461C7.4236 10.0787 7.18313 10.2765 7.03557 10.5376C6.89735 10.7821 6.7412 11.0325 6.59395 11.249C6.43574 11.4815 6.29964 11.7348 6.15233 11.9601C5.98342 12.2185 5.85808 12.4371 5.71083 12.6536C5.67388 12.7079 5.63749 12.7614 5.60054 12.8157C5.56359 12.87 5.52719 12.9235 5.48894 13.0862" stroke="#2563EB" stroke-linecap="round"/>
<path d="M12.0766 16.0013C12.0099 16.0171 11.9207 16.064 11.8311 16.1148C11.7886 16.1389 11.7417 16.1503 11.6972 16.1546C11.5961 16.1643 11.5199 16.0289 11.4349 15.956C11.35 15.8832 11.2621 15.7455 11.1994 15.6298C11.1207 15.4845 11.0267 15.3919 10.9313 15.2305C10.8602 15.1101 10.8212 15.015 10.7699 14.9188C10.7058 14.7984 10.6306 14.6768 10.5574 14.5423C10.4107 14.2731 10.2864 14.0702 10.1977 13.9116C10.0957 13.7292 9.88913 13.4626 9.77129 13.3165C9.67928 13.2024 9.57249 13.0554 9.23443 12.6998C9.07391 12.531 8.90163 12.3886 8.76132 12.27C8.62124 12.1516 8.46653 12.037 8.28132 11.9029C8.08705 11.7623 7.97046 11.739 7.80011 11.6784C7.67766 11.6348 7.56287 11.5951 7.47016 11.5687C7.36599 11.539 7.25902 11.5278 7.08833 11.5174C6.88804 11.5051 6.59097 11.4863 6.43142 11.4758C6.27097 11.4652 6.10872 11.4435 5.7639 11.4534C5.66036 11.4563 5.62474 11.5546 5.59098 11.6049C5.57459 11.6293 5.57922 11.6627 5.59011 11.6822C5.63735 11.7667 5.92579 11.738 6.22062 11.6437C6.54014 11.5415 6.67173 11.4705 6.76125 11.4272C6.86875 11.3753 6.98486 11.2908 7.07447 11.2358C7.2298 11.1406 7.45484 10.9173 7.5972 10.7885C7.75906 10.642 7.84417 10.5435 8.01213 10.3536C8.18537 10.1576 8.26338 10.0389 8.37195 9.91442C8.47025 9.80176 8.6886 9.56615 8.8731 9.35152C9.17349 9.00209 9.29605 8.8355 9.40511 8.72182C9.50271 8.62008 9.61082 8.48492 9.68587 8.39186C9.8119 8.2356 9.96259 8.06599 10.079 7.91057C10.1336 7.83755 10.3136 7.62437 10.5567 7.38315C10.6333 7.30715 10.6293 7.34187 10.6029 7.41895C10.4805 7.7766 10.4325 7.8991 10.3793 8.06913C10.2778 8.39354 10.1674 8.6648 10.0573 9.01657C9.97746 9.27143 9.89418 9.51578 9.84039 9.74047C9.78569 9.9689 9.72606 10.1812 9.67139 10.5476C9.61928 10.8969 9.63612 11.3296 9.65999 11.6141C9.67145 11.7505 9.75094 11.8642 9.8867 12.06C9.97547 12.188 10.0823 12.2634 10.1961 12.4399C10.2969 12.5964 10.3007 12.9089 10.3181 13.1147C10.3289 13.2431 10.3425 13.3347 10.3516 13.6332C10.3597 13.9009 10.35 14.4056 10.3443 14.6922C10.3356 15.1337 10.276 15.502 10.2364 15.8166C10.2048 16.068 10.159 16.2541 10.1548 16.3272C10.1493 16.4238 10.0748 16.6929 9.93511 17.1022C9.73164 17.6982 9.59207 17.7557 9.52434 17.8527C9.44336 17.9688 9.35946 18.0816 9.26222 18.1943C9.17127 18.2996 9.0749 18.4463 8.96653 18.5401C8.88667 18.6092 8.76928 18.6342 8.64996 18.6852C8.53064 18.7362 8.42629 18.8141 8.33293 18.8804C8.2186 18.9617 8.14965 19.063 8.05609 19.1756C7.98706 19.2587 7.96176 19.3654 7.89072 19.4587C7.82234 19.5484 7.7669 19.6447 7.69196 19.738C7.62935 19.8159 7.54981 19.9163 7.47473 20.0136C7.39553 20.1163 7.28075 20.1656 7.19123 20.2088C7.10223 20.2518 7.07138 20.3524 7.04131 20.3836C6.95563 20.4727 7.30887 20.1589 7.47002 20.0184C7.72945 19.7923 7.86961 19.6759 8.29266 19.3392C8.60891 19.0874 9.18798 18.5872 9.50745 18.3138C9.96571 17.9217 10.1701 17.7297 10.3348 17.5777C10.5269 17.4003 10.7452 17.1781 10.9072 16.9906C11.0082 16.8738 11.1723 16.6882 11.2928 16.5439C11.3746 16.4459 11.45 16.3537 11.5474 16.2334C11.6653 16.0876 11.8014 15.9195 11.9033 15.7945C11.9805 15.6998 12.1604 15.4852 12.2889 15.3247C12.4126 15.1704 12.5509 15.0025 12.6819 14.8282C12.8778 14.5676 13.0596 14.3819 13.1652 14.2492C13.2668 14.1217 13.4487 13.909 13.5956 13.7482C13.7415 13.5885 13.8164 13.5112 13.8949 13.4371C14.0394 13.3007 14.2205 13.0683 14.3736 12.8975C14.4264 12.8387 14.4528 12.7885 14.4754 12.7383C14.487 12.7126 14.4834 12.6806 14.4689 12.6535C14.4088 12.5413 14.255 12.5275 14.1102 12.4859C13.8943 12.4239 13.5881 12.316 13.4397 12.2669C13.278 12.2135 13.0551 12.1424 12.8584 12.0782C12.7095 12.0296 12.58 11.999 12.33 11.928C12.1177 11.8677 11.7276 11.7754 11.5125 11.7258C11.1886 11.651 11.0233 11.6318 10.8491 11.5946C10.7281 11.5688 10.5786 11.5655 10.3966 11.5476C10.2171 11.53 10.0805 11.5383 9.8817 11.5282C9.37505 11.5023 9.01122 11.5229 8.86393 11.5123C8.25578 11.4689 8.03277 11.4912 7.84241 11.4734C7.69874 11.4705 7.57849 11.4637 7.51198 11.4488C7.47483 11.4413 7.43077 11.434 7.36341 11.3802" stroke="#2563EB" stroke-linecap="round"/>
<path d="M15.262 12.6338C15.2488 12.644 15.2419 12.6815 15.2466 12.707C15.2515 12.7157 15.2612 12.7156 15.2663 12.7088C15.2713 12.702 15.2714 12.6885 15.2715 12.6746" stroke="#2563EB" stroke-linecap="round"/>
</svg>
