<svg width="18" height="21" viewBox="0 0 18 21" fill="none" xmlns="http://www.w3.org/2000/svg">
<path d="M6.40045 0.222509C6.71384 -0.07689 7.2 -0.0727886 7.51339 0.226611C8.62232 1.28886 9.66295 2.43314 10.6353 3.67175C11.0772 3.08116 11.5795 2.43724 12.1219 1.91227C12.4393 1.60877 12.9295 1.60877 13.2469 1.91637C14.6371 3.26982 15.8143 5.05801 16.642 6.75598C17.4576 8.42933 18 10.1396 18 11.3454C18 16.5787 13.9902 21 9 21C3.95357 21 0 16.5746 0 11.3413C0 9.76637 0.715179 7.84284 1.82411 5.93981C2.94509 4.00806 4.52813 1.9943 6.40045 0.222509ZM9.0683 17.0627C10.0848 17.0627 10.9848 16.7756 11.8326 16.2014C13.5241 14.9956 13.9781 12.584 12.9616 10.6892C12.7808 10.3201 12.3188 10.2955 12.0576 10.6072L11.0451 11.8089C10.7799 12.1206 10.3018 12.1124 10.0527 11.7883C9.38973 10.9271 8.20446 9.38905 7.52946 8.51546C7.27634 8.18735 6.7942 8.18325 6.53705 8.51136C5.17902 10.2544 4.49598 11.3536 4.49598 12.5881C4.5 15.3975 6.53304 17.0627 9.0683 17.0627Z" fill="#EA580C"/>
</svg>
