<svg width="18" height="19" viewBox="0 0 18 19" fill="none" xmlns="http://www.w3.org/2000/svg">
<path d="M9 0L9.4275 0.21375L17.3025 3.705L18 4.01375V4.75C18 8.6925 16.4925 12.16 14.6925 14.7013C13.7925 15.96 12.825 17.005 11.88 17.7412C10.935 18.4775 10.0125 19 9 19C7.965 19 7.065 18.4775 6.12 17.7412C5.175 17.005 4.2075 15.96 3.3075 14.7013C1.5075 12.16 0 8.6925 0 4.75V4.01375L0.6975 3.705L8.5725 0.21375L9 0ZM9 2.58875V16.625C9.09 16.625 9.7425 16.4588 10.485 15.8888C11.2275 15.3188 12.0825 14.3925 12.87 13.3C14.468 11.0316 15.4202 8.32932 15.615 5.51L9 2.6125V2.58875Z" fill="#DC2626"/>
</svg>
