<svg width="19" height="18" viewBox="0 0 19 18" fill="none" xmlns="http://www.w3.org/2000/svg">
<path d="M17.1 14.54C17.6039 14.54 18.0872 14.3293 18.4435 13.9542C18.7998 13.5791 19 13.0704 19 12.54V2C19 1.46957 18.7998 0.960859 18.4435 0.585786C18.0872 0.210714 17.6039 0 17.1 0H1.9C1.39609 0 0.912816 0.210714 0.556497 0.585786C0.200178 0.960859 0 1.46957 0 2V12.5C0 13.0304 0.200178 13.5391 0.556497 13.9142C0.912816 14.2893 1.39609 14.5 1.9 14.5H8.3125C8.37549 14.5 8.4359 14.5263 8.48044 14.5732C8.52498 14.6201 8.55 14.6837 8.55 14.75V15.75C8.55 15.8163 8.52498 15.8799 8.48044 15.9268C8.4359 15.9737 8.37549 16 8.3125 16H3.5625C3.31054 16 3.06891 16.1054 2.89075 16.2929C2.71259 16.4804 2.6125 16.7348 2.6125 17C2.6125 17.2652 2.71259 17.5196 2.89075 17.7071C3.06891 17.8946 3.31054 18 3.5625 18H15.4375C15.6895 18 15.9311 17.8946 16.1093 17.7071C16.2874 17.5196 16.3875 17.2652 16.3875 17C16.3875 16.7348 16.2874 16.4804 16.1093 16.2929C15.9311 16.1054 15.6895 16 15.4375 16H10.6875C10.6245 16 10.5641 15.9737 10.5196 15.9268C10.475 15.8799 10.45 15.8163 10.45 15.75V14.75C10.45 14.6837 10.475 14.6201 10.5196 14.5732C10.5641 14.5263 10.6245 14.5 10.6875 14.5L17.1 14.54ZM16.8625 2C16.9255 2 16.9859 2.02634 17.0304 2.07322C17.075 2.12011 17.1 2.1837 17.1 2.25V10.75C17.1 10.8163 17.075 10.8799 17.0304 10.9268C16.9859 10.9737 16.9255 11 16.8625 11H2.1375C2.08057 11.0008 2.02528 10.98 1.98169 10.9414C1.93809 10.9029 1.9091 10.8492 1.9 10.79V2.29C1.89445 2.25398 1.89646 2.21712 1.90588 2.18201C1.91531 2.1469 1.93192 2.11438 1.95455 2.08674C1.97719 2.05911 2.00529 2.03702 2.0369 2.02204C2.0685 2.00705 2.10284 1.99953 2.1375 2H16.8625Z" fill="#16A34A"/>
</svg>
